<svg xmlns="http://www.w3.org/2000/svg" width="198.172" height="97.689">
  <path fill="#0f546c" d="M30.882 3.78c-2.145-.011-4.511.062-7.365.167-2.637.098-16.89 1.152-19.737 4.27 4.016.009 10.436.784 8.305 5.188 8.128-1.51 12.924 1.587 15.31 4.16.715-2.056 3.45-2.543 5.304-.95.517.445 1.37 4.343-1.98 4.578 5.332 2.754 7.53 5.24 9.348 9.378 1.558-4.434 7.58-2.853 9.027.05 2.153 4.318-1.302 9.372-8.122 6.465.636 6.517 2.453 6.352-.56 14.969 5.037 1.708 11.67 4.606 6.035 11.672 5.856 1.043 8.876 1.688 12.603 4.024 3.719 2.412 5.27 8.05 10.75 10.57.838-3.487 4.14-5.758 9.28-4.753-1.606-3.764-.472-8.757.945-12.71-10.28-3.628-22.08-8.781-18.883-22.53.577-1.776 2.01-4.69 3.19-6.487.71-1.08 2.388-2.933 3.259-3.983-4.408.42-6.403-3.235-3.454-6.755 1.8-2.15 7.017-1.755 6.883 2.822 1.595-1.25 3.337-2.336 5.09-3.356-8.29-8.59-19.664-12.67-35.127-15.796-3.57-.722-6.527-.974-10.101-.992zm14.372 8.722c1.377-.014 2.982 1.254 3.96 3.127 1.23 2.36 1.067 4.879-.367 5.628-1.434.748-3.595-.558-4.827-2.918-1.23-2.36-1.067-4.878.367-5.627.26-.136.553-.207.867-.21zm7.712 30.03c.149.008.293.034.43.079 1.34.44 1.843 2.566 1.126 4.747-.718 2.182-2.385 3.593-3.724 3.153-1.338-.441-1.841-2.566-1.124-4.747.633-1.923 2.022-3.286 3.292-3.23zM167.292 3.782c2.144-.012 4.51.06 7.365.166 2.636.098 16.889 1.152 19.736 4.27-4.016.009-10.435.784-8.305 5.188-8.128-1.51-12.923 1.587-15.31 4.16-.715-2.056-3.45-2.543-5.303-.95-.517.445-1.37 4.343 1.978 4.578-5.33 2.754-7.528 5.24-9.347 9.378-1.558-4.434-7.58-2.853-9.026.05-2.154 4.318 1.3 9.372 8.12 6.465-.634 6.517-2.452 6.352.562 14.969-5.037 1.708-11.672 4.606-6.036 11.672-5.855 1.043-8.876 1.688-12.603 4.024-3.718 2.412-5.27 8.05-10.75 10.57-.837-3.487-4.14-5.758-9.28-4.753 1.606-3.764.472-8.757-.945-12.71 10.28-3.628 22.08-8.781 18.883-22.53-.576-1.776-2.01-4.69-3.19-6.487-.71-1.08-2.387-2.933-3.258-3.983 4.408.42 6.403-3.235 3.453-6.755-1.8-2.15-7.017-1.755-6.883 2.822-1.595-1.25-3.336-2.336-5.09-3.356 8.29-8.59 19.664-12.67 35.127-15.796 3.57-.722 6.528-.974 10.102-.992zm-14.373 8.72c-1.377-.013-2.982 1.255-3.96 3.128-1.23 2.36-1.067 4.879.367 5.628 1.435.748 3.596-.558 4.827-2.918 1.23-2.36 1.067-4.878-.367-5.627a1.899 1.899 0 0 0-.867-.21zm-7.712 30.032a1.599 1.599 0 0 0-.43.078c-1.34.44-1.843 2.566-1.125 4.747.717 2.182 2.384 3.593 3.723 3.153 1.338-.441 1.842-2.566 1.124-4.747-.632-1.923-2.022-3.286-3.292-3.23z"/>
  <g style="line-height:1.25">
    <path fill="#fff" d="M102.554 85.41q4.51 0 7.762-1.48 3.252-1.551 6.8-4.877l5.618 5.765q-8.205 9.092-19.958 9.092-11.68 0-19.44-7.54-7.688-7.54-7.688-19.07 0-11.532 7.836-19.22 7.909-7.687 19.884-7.687 12.048 0 20.106 8.87l-5.544 6.062q-3.696-3.548-7.023-4.953-3.252-1.404-7.687-1.404-7.835 0-13.158 5.1-5.322 5.027-5.322 12.936 0 7.835 5.249 13.157 5.322 5.249 12.566 5.249z" />
  </g>
</svg>
