<svg xmlns="http://www.w3.org/2000/svg" viewBox="0 0 57.8 56.37"><defs><style>.a{fill:#221e1b;fill-rule:evenodd;}</style></defs><title>github</title><path class="a" d="M32.17,3.63A28.9,28.9,0,0,0,23,60c1.45.27,2-.63,2-1.39s0-2.51,0-4.92c-8,1.75-9.74-3.87-9.74-3.87C13.93,46.43,12,45.54,12,45.54c-2.62-1.79.2-1.76.2-1.76a6.1,6.1,0,0,1,4.43,3c2.57,4.42,6.76,3.14,8.41,2.4A6.19,6.19,0,0,1,26.9,45.3C20.48,44.57,13.74,42.09,13.74,31a11.16,11.16,0,0,1,3-7.76A10.39,10.39,0,0,1,17,15.62s2.42-.78,7.94,3a27.47,27.47,0,0,1,14.47,0c5.52-3.74,7.94-3,7.94-3a10.33,10.33,0,0,1,.29,7.64,11.16,11.16,0,0,1,3,7.76c0,11.1-6.76,13.54-13.19,14.26,1,.89,2,2.65,2,5.35,0,3.86,0,7,0,7.93,0,.77.52,1.67,2,1.39A28.91,28.91,0,0,0,32.17,3.63Z" transform="translate(-3.28 -3.63)"/></svg>