<svg xmlns="http://www.w3.org/2000/svg" fill-rule="evenodd" stroke-linecap="round" stroke-linejoin="round" stroke-miterlimit="1.414" clip-rule="evenodd" viewBox="0 0 199 98">
  <path fill="#0f546c" d="M30.882 3.78c-2.145-.011-4.511.062-7.365.167-2.637.098-16.89 1.152-19.737 4.27 4.016.009 10.436.784 8.305 5.188 8.128-1.51 12.924 1.587 15.31 4.16.715-2.056 3.45-2.543 5.304-.95.517.445 1.37 4.343-1.98 4.578 5.332 2.754 7.53 5.24 9.348 9.378 1.558-4.434 7.58-2.853 9.027.05 2.153 4.318-1.302 9.372-8.122 6.465.636 6.517 2.453 6.352-.56 14.969 5.037 1.708 11.67 4.606 6.035 11.672 5.856 1.043 8.876 1.688 12.603 4.024 3.719 2.412 5.27 8.05 10.75 10.57.838-3.487 4.14-5.758 9.28-4.753-1.606-3.764-.472-8.757.945-12.71-10.28-3.628-22.08-8.781-18.883-22.53.577-1.776 2.01-4.69 3.19-6.487.71-1.08 2.388-2.933 3.259-3.983-4.408.42-6.403-3.235-3.454-6.755 1.8-2.15 7.017-1.755 6.883 2.822 1.595-1.25 3.337-2.336 5.09-3.356-8.29-8.59-19.664-12.67-35.127-15.796-3.57-.722-6.527-.974-10.101-.992V3.78zm14.372 8.722c1.377-.014 2.982 1.254 3.96 3.127 1.23 2.36 1.067 4.879-.367 5.628-1.434.748-3.595-.558-4.827-2.918-1.23-2.36-1.067-4.878.367-5.627.26-.136.553-.207.867-.21zm7.712 30.03c.149.008.293.034.43.079 1.34.44 1.843 2.566 1.126 4.747-.718 2.182-2.385 3.593-3.724 3.153-1.338-.441-1.841-2.566-1.124-4.747.633-1.923 2.022-3.286 3.292-3.23v-.002zm114.326-38.75c2.144-.012 4.51.06 7.365.166 2.636.098 16.889 1.152 19.736 4.27-4.016.009-10.435.784-8.305 5.188-8.128-1.51-12.923 1.587-15.31 4.16-.715-2.056-3.45-2.543-5.303-.95-.517.445-1.37 4.343 1.978 4.578-5.33 2.754-7.528 5.24-9.347 9.378-1.558-4.434-7.58-2.853-9.026.05-2.154 4.318 1.3 9.372 8.12 6.465-.634 6.517-2.452 6.352.562 14.969-5.037 1.708-11.672 4.606-6.036 11.672-5.855 1.043-8.876 1.688-12.603 4.024-3.718 2.412-5.27 8.05-10.75 10.57-.837-3.487-4.14-5.758-9.28-4.753 1.606-3.764.472-8.757-.945-12.71 10.28-3.628 22.08-8.781 18.883-22.53-.576-1.776-2.01-4.69-3.19-6.487-.71-1.08-2.387-2.933-3.258-3.983 4.408.42 6.403-3.235 3.453-6.755-1.8-2.15-7.017-1.755-6.883 2.822-1.595-1.25-3.336-2.336-5.09-3.356 8.29-8.59 19.664-12.67 35.127-15.796 3.57-.722 6.528-.974 10.102-.992zm-14.373 8.72c-1.377-.013-2.982 1.255-3.96 3.128-1.23 2.36-1.067 4.879.367 5.628 1.435.748 3.596-.558 4.827-2.918 1.23-2.36 1.067-4.878-.367-5.627a1.893 1.893 0 0 0-.867-.21v-.001zm-7.712 30.032a1.575 1.575 0 0 0-.43.078c-1.34.44-1.843 2.566-1.125 4.747.717 2.182 2.384 3.593 3.723 3.153 1.338-.441 1.842-2.566 1.124-4.747-.632-1.923-2.022-3.286-3.292-3.23v-.001z"/>
  <path fill="#1b1b1a" stroke="#000" stroke-width=".49660800000000005" d="M96.334 27.395c.428.717 4.495 8.363 2.62 17.314.248.853 2.708.835 3.238-.042.196-1.187 1.312-8.935 8.48-14.989.075-.358-.167-.862-.55-.302-.349.069-4.046 2.49-7.319 7.123.464-1.23 3.191-10.297 3.378-11.7-.183-.144-.696.05-.88.174-.007.495-2.75 8.322-3.268 9.318-.046-1.32-.238-7.287-1.333-11.934-.169-.089-.364.017-.479.18.114.985 1.161 10.961.432 13.358-.406-1.304-2.136-6.881-3.463-8.574-.146-.19-.679-.262-.856.074z"/>
  <path fill="#008096" d="M98.972 24.483c.446 1.583-.787 3.306-2.754 3.85-1.967.542-3.922-.301-4.367-1.884-.445-1.583.788-3.306 2.755-3.849 1.966-.543 3.921.3 4.366 1.883zM109.632 22.202c.328 1.28-.764 2.724-2.438 3.226-1.674.503-3.297-.126-3.624-1.406-.328-1.278.764-2.723 2.438-3.225 1.674-.503 3.297.126 3.624 1.405zM102.06 19.576c.613.937.3 2.226-.7 2.879s-2.306.423-2.918-.514c-.613-.937-.3-2.227.7-2.88s2.306-.423 2.918.515zM113.738 27.032c.742 1.136.473 2.625-.6 3.326-1.073.701-2.544.35-3.286-.786-.742-1.135-.473-2.624.6-3.325 1.072-.702 2.544-.35 3.286.785z"/>
  <path fill="#2bcdd9" d="M97.455 23.496c-.32-.632-1.464-.737-2.553-.234-1.09.503-1.714 1.424-1.393 2.057.32.632 1.463.737 2.553.234 1.09-.503 1.714-1.424 1.393-2.057zM101.091 19.396c.293.448.098 1.094-.436 1.442-.533.35-1.203.269-1.496-.18-.293-.447-.097-1.093.436-1.442.534-.348 1.203-.268 1.496.18zM109.037 22.047c-.105-.734-1.025-1.19-2.053-1.02-1.029.172-1.777.905-1.672 1.64.105.733 1.025 1.19 2.053 1.018 1.03-.17 1.777-.904 1.672-1.638zM113.496 27.32c.429.655.326 1.48-.228 1.842-.554.363-1.351.125-1.78-.53-.428-.656-.326-1.481.229-1.844.554-.362 1.35-.124 1.78.531z"/>
  <g>
    <path fill="#fff" d="M101.278 81.305c2.567 0 4.776-.402 6.627-1.208 1.851-.844 3.787-2.171 5.806-3.981l4.797 4.706c-4.67 4.948-10.35 7.422-17.04 7.422-6.65 0-12.182-2.052-16.599-6.155-4.375-4.104-6.564-9.292-6.564-15.567 0-6.276 2.23-11.506 6.69-15.69 4.503-4.184 10.162-6.275 16.978-6.275 6.858 0 12.58 2.414 17.167 7.24l-4.734 4.95c-2.104-1.931-4.102-3.279-5.996-4.044-1.851-.764-4.039-1.146-6.563-1.146-4.46 0-8.205 1.388-11.235 4.163-3.03 2.736-4.544 6.256-4.544 10.56 0 4.264 1.494 7.844 4.482 10.74 3.03 2.857 6.606 4.285 10.729 4.285h-.001z"/>
  </g>
</svg>
